#!OML:ASF F:\VICON\USERDATA\INSTALL\rory3\rory3.ASF
:FULLY-SPECIFIED
:DEGREES
113
root -0.864654 17.4969 5.17987 -19.1647 -83.6247 38.3944
lowerback -10.7867 1.25425 7.02927
upperback -12.8585 0.492111 -0.395984
thorax -7.61654 -0.719947 -4.28219
lowerneck -5.04368 17.9687 11.5994
upperneck 12.6613 22.7521 2.71284
head 5.63251 11.7915 0.78739
rclavicle 2.80286e-014 -2.94201e-014
rhumerus 9.77536 -26.0422 22.5484
rradius 114.702
rwrist -60.3382
rhand -4.26563 -48.8365
rfingers 7.12502
rthumb 21.4989 -77.6634
lclavicle 2.80286e-014 -2.94201e-014
lhumerus 28.7256 31.6177 -12.6497
lradius 30.3648
lwrist 43.2088
lhand -25.6691 -21.8385
lfingers 7.12502
lthumb 0.865385 8.13947
rfemur -9.48157 10.9379 -10.1266
rtibia 18.4668
rfoot -20.4571 -26.2909
rtoes 42.8455
lfemur -11.1784 3.93372 -34.6783
ltibia -3.97569e-014
lfoot -8.6439 6.96469
ltoes 21.0257
114
root -0.864442 17.4956 5.18218 -19.2737 -83.6638 38.531
lowerback -10.8897 1.30927 6.95973
upperback -12.8024 0.562766 -0.400276
thorax -7.48442 -0.67072 -4.24504
lowerneck -5.26176 17.9408 11.75
upperneck 12.884 22.6809 2.60958
head 5.76576 11.759 0.773834
rclavicle 9.93923e-016 1.90833e-014
rhumerus 9.66789 -26.0947 22.5496
rradius 114.833
rwrist -60.2539
rhand -4.89724 -48.4012
rfingers 7.12502
rthumb 20.8921 -77.2962
lclavicle 9.93923e-016 1.90833e-014
lhumerus 28.5829 31.3098 -12.9302
lradius 30.298
lwrist 43.587
lhand -25.6331 -22.8348
lfingers 7.12502
lthumb 0.900082 7.14302
rfemur -9.53936 11.0647 -10.14
rtibia 18.4759
rfoot -20.3781 -26.5232
rtoes 42.0972
lfemur -11.8244 3.96235 -34.7139
ltibia 1.12958
lfoot -9.1301 7.03139
ltoes 20.8667
115
root -0.86279 17.4951 5.18519 -18.7876 -83.6011 38.0745
lowerback -10.9586 1.19173 6.93023
upperback -12.8427 0.406669 -0.158201
thorax -7.51064 -0.738835 -3.97511
lowerneck -4.88991 18.0575 11.0969
upperneck 12.7871 22.941 2.77582
head 5.58967 11.873 0.862685
rclavicle -1.09332e-014 2.38542e-014
rhumerus 10.319 -26.1842 22.251
rradius 114.836
rwrist -60.3207
rhand -5.46393 -49.3335
rfingers 7.12502
rthumb 20.3476 -78.2875
lclavicle -1.09332e-014 2.38542e-014
lhumerus 27.9361 31.02 -13.2737
lradius 30.2835
lwrist 43.8166
lhand -25.1631 -23.2508
lfingers 7.12502
lthumb 1.35403 6.72468
rfemur -9.56956 10.9714 -10.0899
rtibia 18.517
rfoot -19.1109 -27.5234
rtoes 39.9743
lfemur -11.9711 3.87869 -34.698
ltibia 1.3602
lfoot -9.24064 6.97943
ltoes 21.4284
116
root -0.859405 17.495 5.18849 -18.6232 -83.4673 37.8858
lowerback -10.9746 1.45653 6.73967
upperback -12.731 0.770422 -0.457071
thorax -7.32512 -0.53862 -4.17341
lowerneck -5.46438 17.8289 11.6223
upperneck 12.9995 22.5195 2.58816
head 5.81719 11.6757 0.790623
rclavicle -9.54166e-015 1.74931e-014
rhumerus 9.14342 -26.0039 22.9647
rradius 114.964
rwrist -60.5206
rhand -6.33078 -49.0534
rfingers 7.12502
rthumb 19.5144 -78.0941
lclavicle -9.54166e-015 1.74931e-014
lhumerus 29.622 32.0277 -11.6834
lradius 30.1323
lwrist 43.0966
lhand -24.5793 -22
lfingers 7.12502
lthumb 1.91785 7.97113
rfemur -9.51698 10.9047 -10.1241
rtibia 18.5964
rfoot -20.1986 -26.8309
rtoes 41.3491
lfemur -11.8975 3.75408 -34.7219
ltibia 1.29986
lfoot -9.2646 6.87615
ltoes 22.2046
117
root -0.854391 17.494 5.18994 -18.902 -83.3487 38.1181
lowerback -10.9169 1.33523 6.60826
upperback -12.7282 0.62795 -0.308334
thorax -7.37 -0.592278 -3.94754
lowerneck -5.22817 17.9235 11.4541
upperneck 13.0218 22.7269 2.41969
head 5.79475 11.7623 0.760248
rclavicle 7.7526e-015 -3.97569e-015
rhumerus 9.65203 -26.0896 22.618
rradius 115.047
rwrist -60.4985
rhand -7.47692 -48.8905
rfingers 7.12502
rthumb 18.4121 -78.0391
lclavicle 7.7526e-015 -3.97569e-015
lhumerus 29.2022 31.9386 -11.8247
lradius 30.2347
lwrist 43.0447
lhand -24.4614 -20.42
lfingers 7.12502
lthumb 2.03178 9.55003
rfemur -9.47625 10.933 -10.2121
rtibia 18.7134
rfoot -19.1037 -27.3052
rtoes 39.9471
lfemur -11.5188 3.66036 -34.797
ltibia 0.664204
lfoot -9.07303 6.87199
ltoes 22.8724
118
root -0.847542 17.4933 5.19259 -18.811 -83.2632 37.9637
lowerback -10.8179 1.2331 6.56395
upperback -12.7119 0.507632 -0.246101
thorax -7.42046 -0.645333 -3.86213
lowerneck -5.06574 18.0072 11.5504
upperneck 13.0384 22.8815 2.22536
head 5.8141 11.8306 0.699511
rclavicle 1.49089e-014 -1.59028e-015
rhumerus 9.99267 -26.1383 22.2196
rradius 115.093
rwrist -60.3772
rhand -7.39921 -49.1209
rfingers 7.12502
rthumb 18.4868 -78.2625
lclavicle 1.49089e-014 -1.59028e-015
lhumerus 29.0391 32.0778 -11.8728
lradius 30.3422
lwrist 43.003
lhand -24.3507 -20.7942
lfingers 7.12502
lthumb 2.13869 9.17482
rfemur -9.51289 10.7076 -10.199
rtibia 18.9186
rfoot -9.39245 -31.1623
rtoes 25.6106
lfemur -11.1193 3.5837 -34.8317
ltibia 6.36111e-015
lfoot -8.95998 6.93669
ltoes 24.1081
119
root -0.839295 17.4864 5.20384 -21.2939 -83.2373 40.2657
lowerback -10.5766 1.34999 6.44598
upperback -12.6114 0.690968 -0.508507
thorax -7.4163 -0.546828 -4.07112
lowerneck -5.21551 17.9519 11.9892
upperneck 13.1177 22.7613 2.0482
head 5.93057 11.7773 0.617549
rclavicle 8.34896e-015 2.38542e-015
rhumerus 9.50082 -26.1182 22.2898
rradius 115.13
rwrist -60.3388
rhand -6.37545 -49.4752
rfingers 7.12502
rthumb 19.4714 -78.5202
lclavicle 8.34896e-015 2.38542e-015
lhumerus 29.7768 32.6179 -11.2593
lradius 30.3037
lwrist 42.6526
lhand -24.1023 -21.6051
lfingers 7.12502
lthumb 2.37856 8.36138
rfemur -9.56055 10.416 -10.503
rtibia 19.2206
rfoot 1.86854 -31.7964
rtoes 5.77885
lfemur -10.9105 3.68372 -35.152
ltibia -1.59028e-015
lfoot -9.11485 6.956
ltoes 24.8908
120
root -0.831644 17.4691 5.21926 -27.6786 -83.1562 46.3343
lowerback -10.1899 1.45218 5.90954
upperback -12.4506 0.889654 -0.795975
thorax -7.41781 -0.402228 -4.07361
lowerneck -5.48609 17.917 12.2388
upperneck 13.2608 22.6633 1.93632
head 6.05796 11.732 0.588507
rclavicle 9.93923e-016 1.35174e-014
rhumerus 8.82544 -25.7407 21.6529
rradius 115.633
rwrist -59.6557
rhand -5.29393 -51.334
rfingers 7.12502
rthumb 20.511 -80.2705
lclavicle 9.93923e-016 1.35174e-014
lhumerus 30.0773 32.7387 -11.0402
lradius 30.2279
lwrist 42.3562
lhand -24.035 -21.3898
lfingers 7.12502
lthumb 2.44354 8.57592
rfemur -9.56069 10.2256 -11.327
rtibia 19.5881
rfoot 1.57303 -31.3558
rtoes 7.58744
lfemur -10.5184 3.96845 -35.9316
ltibia 3.33958e-014
lfoot -9.21198 6.97695
ltoes 24.7845
121
root -0.827489 17.457 5.22645 -31.9142 -83.0042 50.3842
lowerback -9.9954 1.31596 5.48624
upperback -12.4112 0.74872 -0.718592
thorax -7.4943 -0.432568 -3.76062
lowerneck -5.0681 18.0386 11.7437
upperneck 13.0434 22.9339 2.01041
head 5.86603 11.8497 0.629245
rclavicle 3.57812e-015 -1.59028e-015
rhumerus 9.42746 -25.7691 20.9079
rradius 115.842
rwrist -59.503
rhand -4.50392 -52.6299
rfingers 7.12502
rthumb 21.27 -81.4828
lclavicle 3.57812e-015 -1.59028e-015
lhumerus 29.1016 32.1717 -11.7789
lradius 30.3126
lwrist 42.4834
lhand -24.1024 -21.8295
lfingers 7.12502
lthumb 2.37842 8.13701
rfemur -9.62943 9.78476 -11.9158
rtibia 19.927
rfoot -3.49312 -30.9808
rtoes 18.382
lfemur -10.2857 4.11983 -36.4798
ltibia 4.45278e-014
lfoot -9.28475 6.98134
ltoes 24.7813
122
root -0.823946 17.4603 5.21767 -30.9856 -82.905 49.7062
lowerback -10.2947 1.63725 5.24466
upperback -12.356 1.15597 -1.14588
thorax -7.21488 -0.218284 -4.06198
lowerneck -5.66183 17.7154 12.2982
upperneck 12.9917 22.3233 2.13225
head 5.96839 11.5746 0.599798
rclavicle 2.00773e-014 7.95139e-015
rhumerus 7.95777 -25.6308 21.5782
rradius 116.004
rwrist -59.5716
rhand -4.36462 -50.5761
rfingers 7.12502
rthumb 21.4038 -79.4138
lclavicle 2.00773e-014 7.95139e-015
lhumerus 30.8501 32.7802 -10.5034
lradius 30.1939
lwrist 42.0558
lhand -23.9547 -22.0995
lfingers 7.12502
lthumb 2.52107 7.86533
rfemur -10.0601 9.32485 -11.8863
rtibia 20.2981
rfoot -4.01184 -30.9535
rtoes 19.4038
lfemur -10.5929 3.93126 -36.4483
ltibia -3.18055e-015
lfoot -9.16794 6.9555
ltoes 24.5896
123
root -0.817119 17.4804 5.19482 -23.2878 -82.9583 42.5748
lowerback -10.899 1.52322 5.66473
upperback -12.5025 0.936595 -0.803835
thorax -7.07435 -0.3559 -3.93555
lowerneck -5.62235 17.7594 12.1059
upperneck 13.0466 22.4096 2.15087
head 5.95937 11.6119 0.632112
rclavicle -1.19271e-015 -1.35174e-014
rhumerus 8.23874 -25.8103 21.4335
rradius 116.021
rwrist -59.5253
rhand -4.54061 -48.0356
rfingers 7.12502
rthumb 21.2347 -76.8925
lclavicle -1.19271e-015 -1.35174e-014
lhumerus 30.5107 32.6656 -10.706
lradius 30.2951
lwrist 42.0597
lhand -23.9404 -21.3202
lfingers 7.12502
lthumb 2.53495 8.64444
rfemur -10.6735 9.4062 -10.9006
rtibia 20.5444
rfoot -2.30064 -31.7078
rtoes 14.9296
lfemur -11.3606 3.4498 -35.5628
ltibia -5.08889e-014
lfoot -8.82509 6.9871
ltoes 24.0712
124
root -0.813861 17.4796 5.18733 -25.0264 -82.9299 44.3745
lowerback -10.9584 1.72491 5.26653
upperback -12.4779 1.21745 -1.0599
thorax -6.97771 -0.189864 -3.97041
lowerneck -6.06665 17.5387 12.5197
upperneck 13.4384 22.0004 2.09087
head 6.19464 11.4291 0.598112
rclavicle -2.38542e-015 1.74931e-014
rhumerus 7.6208 -25.6655 21.9372
rradius 115.919
rwrist -59.7925
rhand -5.1702 -47.4551
rfingers 7.12502
rthumb 20.6299 -76.3788
lclavicle -2.38542e-015 1.74931e-014
lhumerus 31.4734 32.902 -9.97722
lradius 30.238
lwrist 41.7035
lhand -23.9609 -21.1175
lfingers 7.12502
lthumb 2.51515 8.8474
rfemur -10.8998 9.20372 -11.0688
rtibia 20.6989
rfoot 3.1826 -31.5816
rtoes 5.07819
lfemur -11.4574 3.49871 -35.7819
ltibia -9.54166e-015
lfoot -8.77151 7.00342
ltoes 23.8186
